<svg width="14" height="14" viewBox="0 0 14 14" fill="none" xmlns="http://www.w3.org/2000/svg">
<path d="M13.75 8.66796C12.8177 12.407 9.03029 14.6825 5.29044 13.7501C1.5521 12.8179 -0.723659 9.03067 0.20907 5.29187C1.14093 1.5524 4.92834 -0.723334 8.66711 0.208859C12.4067 1.14105 14.6823 4.92872 13.75 8.66796Z" fill="#F7931A" style="fill:#F7931A;fill:color(display-p3 0.9686 0.5765 0.1020);fill-opacity:1;"/>
<path fill-rule="evenodd" clip-rule="evenodd" d="M10.056 5.9852C10.1949 5.0565 9.48779 4.55725 8.52092 4.2242L8.83456 2.96615L8.06878 2.77531L7.76343 4.0002C7.56212 3.95004 7.35535 3.90271 7.14989 3.85582L7.45743 2.62285L6.69209 2.43201L6.37823 3.68962C6.21159 3.65167 6.04801 3.61415 5.88923 3.57467L5.8901 3.57075L4.83402 3.30706L4.63031 4.12496C4.63031 4.12496 5.19848 4.25517 5.18649 4.26324C5.49664 4.34067 5.55269 4.54591 5.54331 4.70862L5.18605 6.1418C5.20742 6.14726 5.23512 6.15511 5.26566 6.16732L5.23974 6.16085C5.22197 6.15639 5.20355 6.15178 5.18474 6.14726L4.68396 8.15494C4.64601 8.24916 4.54983 8.3905 4.33303 8.33684C4.34066 8.34797 3.77642 8.19791 3.77642 8.19791L3.39626 9.07448L4.39279 9.32291C4.50408 9.3508 4.61402 9.37947 4.72282 9.40784L4.7229 9.40786C4.79533 9.42675 4.86725 9.4455 4.93872 9.46381L4.6218 10.7362L5.38671 10.9271L5.70057 9.66817C5.90951 9.72488 6.11235 9.77723 6.31083 9.82652L5.99807 11.0795L6.76384 11.2704L7.08075 10.0004C8.38657 10.2475 9.36849 10.1478 9.7818 8.96674C10.1149 8.01579 9.76523 7.46725 9.07819 7.10955C9.57853 6.99417 9.95542 6.66505 10.056 5.9852ZM8.3063 8.43875C8.08919 9.3112 6.72356 8.95051 6.09872 8.78547L6.09865 8.78545C6.04246 8.77061 5.99226 8.75735 5.94943 8.74672L6.36994 7.06096C6.42212 7.07398 6.48587 7.08829 6.55808 7.10449C7.20435 7.24951 8.52878 7.54669 8.3063 8.43875ZM6.68793 6.32214C7.20889 6.46117 8.34523 6.76443 8.54317 5.97147C8.7453 5.1604 7.64086 4.9159 7.10147 4.79649C7.0408 4.78306 6.98728 4.77121 6.94357 4.76032L6.56231 6.28926C6.59833 6.29823 6.64059 6.30951 6.68793 6.32214Z" fill="white" style="fill:white;fill-opacity:1;"/>
</svg>
